<?xml version="1.0" standalone="no"?><!DOCTYPE svg PUBLIC "-//W3C//DTD SVG 1.1//EN" "http://www.w3.org/Graphics/SVG/1.1/DTD/svg11.dtd"><svg t="1552304765483" class="icon" style="" viewBox="0 0 1024 1024" version="1.1" xmlns="http://www.w3.org/2000/svg" p-id="5749" xmlns:xlink="http://www.w3.org/1999/xlink" width="32" height="32"><defs><style type="text/css"></style></defs><path d="M844.23 1024H179.77a99.522 99.522 0 0 1-99.405-99.406v-88.427a25.924 25.924 0 0 1 51.848 0v88.427a47.622 47.622 0 0 0 47.557 47.558h664.46a47.622 47.622 0 0 0 47.557-47.558V99.406a47.622 47.622 0 0 0-47.557-47.558H179.77a47.622 47.622 0 0 0-47.557 47.558v567.166a25.924 25.924 0 0 1-51.848 0V99.406A99.522 99.522 0 0 1 179.77 0h664.46a99.522 99.522 0 0 1 99.405 99.406v825.188A99.522 99.522 0 0 1 844.23 1024z m-89.84-728.466H269.61a25.924 25.924 0 0 1 0-51.848h484.78a25.924 25.924 0 0 1 0 51.848z m-156.84 160.73H269.61a25.924 25.924 0 0 1 0-51.849h327.94a25.924 25.924 0 0 1 0 51.848z m69.489 405.814a83.125 83.125 0 0 1-31.11-5.845c-28.399-11.368-43.124-35.659-54.958-55.167-5.56-9.164-13.947-23.007-18.497-23.487-6.48-0.661-26.378 11.873-54.855 64.356a25.924 25.924 0 1 1-45.575-24.731c22.554-41.57 58.031-96.23 105.874-91.188 30.111 3.176 45.238 28.128 57.396 48.167 9.073 14.906 17.564 28.983 29.89 33.909 25.64 10.265 75.18-17.084 135.778-75.038a25.924 25.924 0 0 1 35.814 37.487c-43.216 41.284-80.196 67.908-113.081 81.375-16.565 6.766-32.159 10.162-46.676 10.162z" fill="#ff5a5f" p-id="5750"></path></svg>