<?xml version="1.0" standalone="no"?><!DOCTYPE svg PUBLIC "-//W3C//DTD SVG 1.1//EN" "http://www.w3.org/Graphics/SVG/1.1/DTD/svg11.dtd"><svg t="1552304704302" class="icon" style="" viewBox="0 0 1024 1024" version="1.1" xmlns="http://www.w3.org/2000/svg" p-id="4911" xmlns:xlink="http://www.w3.org/1999/xlink" width="32" height="32"><defs><style type="text/css"></style></defs><path d="M1024 512c0 282.769408-229.230592 512-512 512C229.229568 1024 0 794.769408 0 512S229.229568 0 512 0c282.769408 0 512 229.230592 512 512" fill="#CF7A92" p-id="4912"></path><path d="M764.23168 593.449984c0 4.165632-2.081792 95.806464-137.57952 133.293056-8.339456 2.084864-12.50816 10.41408-12.50816 16.661504v24.992768H405.687296v-24.992768c0-8.329216-6.252544-14.57664-12.50816-16.661504-133.41184-37.486592-137.582592-129.127424-137.582592-133.293056v-87.473152h510.72l-2.084864 87.473152z m18.760704-124.962816H378.587136l400.237568-124.962816c10.423296-2.08384 14.592-12.49792 12.507136-22.908928-2.08384-10.415104-12.507136-14.578688-22.928384-12.496896l-506.551296 160.36864h-22.931456a18.700288 18.700288 0 0 0-13.290496 5.46816 18.665472 18.665472 0 0 0-5.471232 13.278208v106.216448c0 4.165632 2.084864 116.632576 150.089728 164.537344v29.157376a18.660352 18.660352 0 0 0 5.471232 13.277184 18.709504 18.709504 0 0 0 13.289472 5.467136h245.979136a18.694144 18.694144 0 0 0 13.288448-5.467136 18.665472 18.665472 0 0 0 5.475328-13.277184v-29.157376C801.755136 710.08256 803.84 597.615616 803.84 593.449984V487.233536c-2.084864-10.413056-10.423296-18.746368-20.847616-18.746368z m0 0" fill="#F9F9F9" p-id="4913"></path><path d="M307.712 578.87232h400.239616a18.679808 18.679808 0 0 0 18.761728-18.743296 18.65728 18.65728 0 0 0-5.474304-13.279232 18.685952 18.685952 0 0 0-13.287424-5.46816H307.712a18.695168 18.695168 0 0 0-13.289472 5.46816 18.668544 18.668544 0 0 0-5.472256 13.279232 18.66752 18.66752 0 0 0 5.472256 13.27616 18.707456 18.707456 0 0 0 13.289472 5.467136z m-68.791296-160.369664h6.254592l506.551296-160.366592c10.423296-2.085888 14.588928-12.496896 12.505088-22.910976-2.081792-10.415104-12.505088-14.578688-22.928384-12.496896L234.752 383.095808c-10.422272 2.081792-14.592 12.496896-12.507136 22.912 2.08384 8.328192 8.339456 12.494848 16.67584 12.494848z m0 0" fill="#FFFFFF" p-id="4914"></path></svg>