<?xml version="1.0" standalone="no"?><!DOCTYPE svg PUBLIC "-//W3C//DTD SVG 1.1//EN" "http://www.w3.org/Graphics/SVG/1.1/DTD/svg11.dtd"><svg t="1552304599139" class="icon" style="" viewBox="0 0 1237 1024" version="1.1" xmlns="http://www.w3.org/2000/svg" p-id="2560" xmlns:xlink="http://www.w3.org/1999/xlink" width="38.65625" height="32"><defs><style type="text/css"></style></defs><path d="M800.568586 531.286425a22.561478 22.561478 0 0 0 0-39.30064L509.452736 315.860697a22.561478 22.561478 0 0 0-22.561478 0 22.561478 22.561478 0 0 0-11.644634 19.650319v353.705757a22.561478 22.561478 0 0 0 11.644634 19.65032 22.561478 22.561478 0 0 0 22.561478 0l291.11585-177.580668zM620.804549 0C1237.24236 0 1237.24236 139.007818 1237.24236 509.452736s3.638948 509.452736-616.437811 509.452737S0 910.464819 0 509.452736s0-509.452736 620.804549-509.452736z" fill="#BDE478" p-id="2561"></path></svg>