<?xml version="1.0" standalone="no"?><!DOCTYPE svg PUBLIC "-//W3C//DTD SVG 1.1//EN" "http://www.w3.org/Graphics/SVG/1.1/DTD/svg11.dtd"><svg t="1552484000496" class="icon" style="" viewBox="0 0 1024 1024" version="1.1" xmlns="http://www.w3.org/2000/svg" p-id="2580" xmlns:xlink="http://www.w3.org/1999/xlink" width="32" height="32"><defs><style type="text/css"></style></defs><path d="M446.6 759.5l270.2-270.2-39.8-39.9-230.4 230.4-99.6-99.5-39.8 39.8 139.4 139.4z" p-id="2581" fill="#8a8a8a"></path><path d="M934.4 0H89.6C30.4 0 14.2 19.9 14.2 82.5v827.7c0 62.6 16.1 113.8 75.3 113.8h705l215.3-227.6v-714c0-62.5-16.2-82.4-75.4-82.4zM794.5 938.7v-128c0-31.3-10.8-17.1 18.8-17.1h126.5L794.5 938.7zM956 739.6H813.4c-59.2 0-72.6 11.4-72.6 74v153.6H89.6c-29.6-0.1-21.6-22.8-21.6-57V256h888v483.6z m0-657.1v116.6H68V82.5c0-31.3-8.1-25.6 21.5-25.6h844.9c29.6 0 21.6-5.7 21.6 25.6z" p-id="2582" fill="#8a8a8a"></path></svg>